PLOT

Bruce Willis plays a Special-Ops commander who leads his team into the jungle of Nigeria to rescue a doctor
played by Monica Belluci who will only go with them if they agree to rescue 70 refugees too.
 
http://www.imdb.com/title/tt0314353/

Encoded By .......: LKRG
Runtime ..........: 2h 0mn
File Size ........: 1.05 GB
Resolution .......: 704 x 396
IMDb URL .........: http://www.imdb.com/title/tt0314353/
Genre ............: Action,Drama,Thriller
Language .........: English
Subtitles ........: None
Video
ID : 0
Format : MPEG-4 Visual
Format profile : Advanced Simple@L5
Format settings, BVOP : Yes
Format settings, QPel : No
Format settings, GMC : No warppoints
Format settings, Matrix : Default (H.263)
Codec ID : XVID
Codec ID/Hint : XviD
Duration : 2h 0mn
Bit rate : 35.6 Kbps
Width : 704 pixels
Height : 396 pixels
Display aspect ratio : 16:9
Frame rate : 23.976 fps
Color space : YUV
Chroma subsampling : 4:2:0
Bit depth : 8 bits
Scan type : Progressive
Compression mode : Lossy
Bits/(Pixel*Frame) : 0.005
Stream size : 30.7 MiB (3%)
Writing library : XviD 1.2.1 (UTC 2008-12-04)
Audio
ID : 1
Format : AC-3
Format/Info : Audio Coding 3
Codec ID : 2000
Duration : 2h 0mn
Bit rate mode : Constant
Bit rate : 448 Kbps
Channel(s) : 6 channels
Sampling rate : 48.0 KHz
Bit depth : 16 bits
Compression mode : Lossy
Stream size : 387 MiB (36%)
Alignment : Aligned on interleaves
 
http://www.shotpix.com/images/95943133938529269371.png
 
http://www.shotpix.com/images/06431297302231440374.png
 
http://www.shotpix.com/images/31608919912266930465.png
 
http://www.shotpix.com/images/36482487601523844855.png
 
http://www.shotpix.com/images/90676316213611321994.png
